<?xml version="1.0" standalone="no"?>
<!DOCTYPE svg PUBLIC "-//W3C//DTD SVG 20010904//EN"
 "http://www.w3.org/TR/2001/REC-SVG-20010904/DTD/svg10.dtd">
<svg version="1.0" xmlns="http://www.w3.org/2000/svg"
 width="256.000000pt" height="256.000000pt" viewBox="0 0 256.000000 256.000000"
 preserveAspectRatio="xMidYMid meet">
<metadata>
Created by potrace 1.16, written by Peter Selinger 2001-2019
</metadata>
<g transform="translate(0.000000,256.000000) scale(0.100000,-0.100000)"
fill="#7083f1" stroke="none">
<path d="M1742 2269 c-69 -34 -104 -71 -138 -144 -31 -66 -33 -179 -4 -244 26
-57 225 -328 252 -342 41 -22 66 -2 171 139 138 186 157 224 157 322 0 66 -4
86 -31 138 -53 108 -143 162 -270 162 -65 0 -85 -4 -137 -31z m229 -122 c18
-12 44 -38 57 -57 20 -29 23 -45 20 -96 -4 -57 -8 -66 -82 -167 -42 -59 -81
-107 -86 -107 -5 0 -44 48 -86 107 -74 101 -78 110 -82 167 -3 51 0 67 20 96
38 56 82 80 148 80 43 0 65 -6 91 -23z"/>
<path d="M528 1481 c-213 -69 -348 -254 -348 -480 0 -94 15 -162 49 -229 12
-23 110 -162 217 -307 l195 -265 39 0 39 0 195 265 c107 145 204 281 214 302
35 69 52 144 52 234 0 226 -136 414 -349 479 -83 26 -223 26 -303 1z m312
-145 c73 -36 135 -98 173 -171 25 -49 31 -76 35 -142 5 -96 -12 -160 -61 -232
-82 -122 -302 -411 -309 -409 -15 5 -316 420 -340 468 -19 38 -23 61 -23 150
0 96 3 110 28 160 47 92 123 160 218 194 71 26 209 17 279 -18z"/>
<path d="M573 1174 c-62 -37 -93 -95 -93 -174 0 -50 5 -73 25 -106 37 -63 95
-94 175 -94 123 0 200 77 200 200 0 123 -77 200 -201 200 -51 0 -73 -5 -106
-26z"/>
<path d="M1706 1448 c-53 -62 -46 -119 17 -134 24 -5 34 0 67 35 45 47 54 96
22 124 -32 29 -67 21 -106 -25z"/>
<path d="M1526 1208 c-53 -61 -46 -119 17 -134 23 -5 33 0 67 34 46 45 54 96
22 125 -32 29 -67 21 -106 -25z"/>
<path d="M1477 992 c-28 -31 -21 -67 21 -112 44 -45 80 -52 112 -20 30 30 25
65 -16 110 -41 45 -88 54 -117 22z"/>
<path d="M1674 765 c-21 -32 -13 -61 29 -108 40 -42 76 -48 107 -17 30 30 25
65 -16 110 -45 50 -93 56 -120 15z"/>
<path d="M1882 558 c-7 -7 -12 -29 -12 -49 0 -30 7 -43 40 -73 44 -40 64 -44
98 -20 33 23 29 71 -9 117 -25 31 -37 37 -68 37 -20 0 -42 -5 -49 -12z"/>
<path d="M2087 332 c-21 -23 -21 -52 -3 -97 14 -33 17 -35 64 -35 53 0 66 9
77 51 5 21 0 34 -25 63 -37 41 -85 49 -113 18z"/>
<path d="M892 308 c-7 -7 -12 -28 -12 -48 0 -20 5 -41 12 -48 16 -16 140 -16
156 0 16 16 16 80 0 96 -16 16 -140 16 -156 0z"/>
<path d="M1192 308 c-7 -7 -12 -28 -12 -48 0 -51 14 -60 90 -60 76 0 90 9 90
60 0 20 -5 41 -12 48 -16 16 -140 16 -156 0z"/>
<path d="M1492 308 c-7 -7 -12 -28 -12 -48 0 -51 14 -60 90 -60 76 0 90 9 90
60 0 20 -5 41 -12 48 -16 16 -140 16 -156 0z"/>
<path d="M1792 308 c-7 -7 -12 -28 -12 -48 0 -51 14 -60 90 -60 76 0 90 9 90
60 0 20 -5 41 -12 48 -16 16 -140 16 -156 0z"/>
</g>
</svg>
