<?xml version="1.0" standalone="no"?>
<!DOCTYPE svg PUBLIC "-//W3C//DTD SVG 20010904//EN"
 "http://www.w3.org/TR/2001/REC-SVG-20010904/DTD/svg10.dtd">
<svg version="1.0" xmlns="http://www.w3.org/2000/svg"
 width="200.000000pt" height="200.000000pt" viewBox="0 0 200.000000 200.000000"
 preserveAspectRatio="xMidYMid meet">
<metadata>
Created by potrace 1.16, written by Peter Selinger 2001-2019
</metadata>
<g transform="translate(0.000000,200.000000) scale(0.100000,-0.100000)"
fill="#7083f1" stroke="none">
<path d="M257 1929 c-44 -26 -47 -54 -47 -512 l0 -433 -41 -39 c-66 -65 -67
-68 -9 -129 l50 -53 0 -351 0 -352 790 0 790 0 0 353 0 353 41 39 c66 65 67
68 9 129 l-50 53 0 432 c0 459 -2 486 -48 510 -29 15 -1459 15 -1485 0z m1451
-151 l3 -88 -711 0 -710 0 0 83 c0 46 3 87 7 90 3 4 322 6 707 5 l701 -3 3
-87z m2 -449 l0 -290 -30 21 c-81 58 -268 121 -430 145 -122 19 -378 19 -500
0 -162 -24 -349 -87 -430 -145 l-30 -21 0 290 0 291 710 0 710 0 0 -291z
m-592 -210 c34 -17 62 -34 62 -39 0 -5 -34 -50 -75 -101 -41 -50 -75 -96 -75
-101 0 -4 26 -8 58 -8 31 0 87 -3 123 -6 l66 -7 -9 -40 c-18 -83 -69 -146
-150 -186 -126 -63 -265 -26 -345 92 -64 95 -63 209 0 304 79 118 220 155 345
92z m-402 -39 c-49 -71 -61 -113 -60 -210 1 -91 17 -142 68 -209 14 -19 24
-36 22 -38 -7 -7 -170 35 -242 62 -38 14 -94 40 -124 57 -69 39 -170 117 -170
132 0 30 175 147 280 187 55 21 224 68 248 69 7 0 -3 -22 -22 -50z m630 30
c111 -26 206 -63 288 -112 68 -40 156 -113 156 -128 0 -16 -140 -114 -215
-150 -76 -37 -206 -79 -288 -94 l-37 -7 39 61 c41 63 61 130 61 204 l0 43 -91
8 -90 7 43 51 c77 93 74 85 48 112 -29 31 -21 31 86 5z m-932 -470 c163 -74
354 -110 586 -110 274 0 512 55 670 155 l40 25 0 -290 0 -290 -710 0 -710 0 0
291 0 290 30 -21 c16 -12 59 -34 94 -50z"/>
<path d="M400 1465 l0 -35 600 0 600 0 0 35 0 35 -600 0 -600 0 0 -35z"/>
<path d="M400 1285 l0 -35 600 0 600 0 0 35 0 35 -600 0 -600 0 0 -35z"/>
<path d="M400 465 l0 -35 600 0 600 0 0 35 0 35 -600 0 -600 0 0 -35z"/>
<path d="M400 285 l0 -35 320 0 320 0 0 35 0 35 -320 0 -320 0 0 -35z"/>
</g>
</svg>
