<?xml version="1.0" standalone="no"?>
<!DOCTYPE svg PUBLIC "-//W3C//DTD SVG 20010904//EN"
 "http://www.w3.org/TR/2001/REC-SVG-20010904/DTD/svg10.dtd">
<svg version="1.0" xmlns="http://www.w3.org/2000/svg"
 width="225.000000pt" height="225.000000pt" viewBox="0 0 225.000000 225.000000"
 preserveAspectRatio="xMidYMid meet">
<metadata>
Created by potrace 1.16, written by Peter Selinger 2001-2019
</metadata>
<g transform="translate(0.000000,225.000000) scale(0.100000,-0.100000)"
fill="#7083f1" stroke="none">
<path d="M852 2219 c-163 -32 -305 -169 -367 -354 -23 -67 -27 -97 -27 -185 1
-176 47 -296 160 -412 146 -151 333 -186 521 -96 181 86 307 325 287 546 -30
333 -288 558 -574 501z"/>
<path d="M498 1001 c-264 -142 -350 -193 -389 -228 -109 -99 -112 -259 -7
-360 64 -61 52 -60 656 -68 l552 -8 0 29 c1 40 35 113 73 153 95 100 242 107
361 16 l34 -26 36 44 c23 28 36 54 36 73 -1 46 -34 107 -81 148 -61 53 -529
308 -554 302 -11 -2 -51 -17 -90 -32 -62 -24 -84 -28 -185 -28 -103 0 -122 3
-185 28 -38 15 -79 30 -90 32 -12 3 -77 -26 -167 -75z"/>
<path d="M2051 600 c-12 -6 -80 -66 -150 -134 l-126 -124 -67 63 c-93 88 -162
99 -224 34 -25 -26 -29 -39 -29 -83 0 -61 11 -77 163 -233 98 -101 133 -117
195 -92 45 18 382 355 402 403 21 50 11 96 -30 136 -36 35 -92 47 -134 30z"/>
</g>
</svg>
