<?xml version="1.0" standalone="no"?>
<!DOCTYPE svg PUBLIC "-//W3C//DTD SVG 20010904//EN"
 "http://www.w3.org/TR/2001/REC-SVG-20010904/DTD/svg10.dtd">
<svg version="1.0" xmlns="http://www.w3.org/2000/svg"
 width="200.000000pt" height="200.000000pt" viewBox="0 0 200.000000 200.000000"
 preserveAspectRatio="xMidYMid meet">
<metadata>
Created by potrace 1.16, written by Peter Selinger 2001-2019
</metadata>
<g transform="translate(0.000000,200.000000) scale(0.100000,-0.100000)"
fill="#000000" stroke="none">
<path d="M566 1848 c2 -29 9 -127 14 -218 l10 -165 250 -249 251 -249 -24 -26
c-89 -98 -148 -171 -146 -179 2 -6 53 -46 114 -91 l110 -81 53 158 52 158 138
94 c75 51 138 94 140 95 1 1 15 64 30 141 l27 139 77 25 c42 14 79 28 82 31 3
3 -49 43 -115 89 l-121 83 -93 -93 -93 -92 -371 241 c-204 132 -375 241 -380
241 -5 0 -8 -24 -5 -52z"/>
<path d="M1340 1856 c-58 -12 -111 -25 -116 -29 -23 -14 -155 -197 -150 -206
5 -8 194 -142 232 -164 6 -4 40 26 77 67 l66 73 15 119 c20 152 20 164 -1 163
-10 -1 -65 -11 -123 -23z"/>
<path d="M396 333 c24 -76 44 -141 44 -145 0 -5 20 -8 44 -8 l44 0 30 88 29
87 27 -87 27 -88 43 0 c41 0 43 2 54 38 7 20 27 85 46 145 l34 107 -37 0 -37
0 -30 -92 -30 -93 -31 90 c-29 90 -30 90 -65 93 l-36 3 -28 -85 c-16 -47 -31
-86 -34 -86 -4 0 -18 37 -31 83 l-24 82 -42 3 -41 3 44 -138z"/>
<path d="M858 398 c-38 -10 -47 -28 -29 -57 7 -11 15 -11 44 -2 26 9 41 9 57
1 34 -18 23 -30 -28 -30 -62 0 -92 -21 -92 -64 0 -46 30 -70 83 -69 23 1 61 1
85 2 l42 1 0 88 c0 79 -2 91 -23 110 -27 25 -89 35 -139 20z"/>
<path d="M1363 403 c-39 -8 -73 -59 -73 -110 0 -36 6 -50 30 -75 28 -27 35
-30 85 -26 57 3 65 -1 40 -22 -15 -12 -75 -10 -106 4 -11 5 -19 -1 -28 -20 -6
-15 -10 -28 -9 -29 34 -28 142 -34 187 -10 40 20 51 61 51 182 l0 104 -47 -2
c-27 -1 -61 1 -78 4 -16 3 -40 3 -52 0z"/>
<path d="M1660 403 c-79 -25 -111 -95 -78 -167 37 -83 184 -82 223 1 20 42 15
95 -12 126 -32 35 -92 54 -133 40z"/>
<path d="M1040 391 c0 -6 20 -55 44 -110 46 -104 47 -127 2 -119 -19 4 -29 -1
-42 -20 -21 -31 -7 -42 57 -42 34 0 51 5 66 23 18 18 123 251 123 271 0 3 -15
6 -34 6 -31 0 -35 -4 -62 -67 l-30 -66 -25 64 c-24 61 -26 64 -62 67 -21 2
-37 -1 -37 -7z"/>
</g>
</svg>
