<?xml version="1.0" standalone="no"?>
<!DOCTYPE svg PUBLIC "-//W3C//DTD SVG 20010904//EN"
 "http://www.w3.org/TR/2001/REC-SVG-20010904/DTD/svg10.dtd">
<svg version="1.0" xmlns="http://www.w3.org/2000/svg"
 width="555.000000pt" height="514.000000pt" viewBox="0 0 555.000000 514.000000"
 preserveAspectRatio="xMidYMid meet">
<metadata>
Created by potrace 1.16, written by Peter Selinger 2001-2019
</metadata>
<g transform="translate(0.000000,514.000000) scale(0.100000,-0.100000)"
fill="#000000" stroke="none">
<path d="M2050 4040 c0 -346 2 -630 3 -630 2 0 105 49 229 109 282 137 492
230 538 237 122 20 242 -102 210 -213 -12 -41 -15 -45 -261 -235 -278 -214
-359 -286 -380 -334 -20 -44 -20 -44 0 -86 26 -56 30 -61 141 -153 119 -99
459 -323 629 -416 l129 -70 359 207 c197 114 377 220 401 237 94 68 174 210
194 344 29 198 -64 400 -234 511 -35 22 -254 150 -488 285 -234 134 -526 302
-650 374 -206 119 -586 335 -752 427 l-68 37 0 -631z"/>
<path d="M1173 1138 c3 -13 25 -143 48 -290 l43 -268 47 0 46 0 80 243 c43
133 83 242 88 242 6 0 43 -97 83 -215 41 -118 78 -227 84 -242 9 -25 15 -28
59 -28 27 0 49 4 49 8 0 5 23 129 50 277 28 148 50 275 50 282 0 20 -48 16
-54 -4 -6 -20 -86 -462 -86 -475 0 -4 -6 -8 -12 -8 -8 0 -49 103 -99 248 l-86
247 -35 3 -34 3 -78 -243 c-77 -237 -89 -268 -102 -256 -3 4 -21 102 -40 220
-18 117 -36 228 -39 246 -5 28 -10 32 -37 32 -26 0 -29 -3 -25 -22z"/>
<path d="M2178 1098 c-14 -35 -65 -155 -113 -268 -48 -113 -91 -215 -96 -227
-8 -21 -6 -23 24 -23 l32 0 104 255 c58 141 109 254 114 252 5 -1 33 -61 63
-132 40 -95 50 -131 41 -137 -6 -4 -42 -8 -78 -8 -58 0 -67 -3 -72 -20 -5 -18
1 -19 91 -22 l97 -3 37 -90 c36 -89 37 -90 73 -93 21 -2 36 1 34 6 -2 5 -58
136 -124 291 l-120 281 -41 0 c-41 0 -41 0 -66 -62z"/>
<path d="M2521 1138 c7 -13 54 -98 106 -191 l93 -167 0 -100 0 -100 30 0 30 0
0 98 0 98 110 188 c61 103 110 190 110 192 0 3 -16 4 -36 2 -36 -3 -38 -6
-118 -147 -45 -80 -86 -146 -91 -148 -6 -2 -48 64 -93 147 -83 148 -84 150
-118 150 -33 0 -34 -1 -23 -22z"/>
<path d="M3257 1146 c-63 -17 -116 -61 -147 -122 -22 -43 -25 -62 -25 -154 0
-98 2 -109 30 -159 53 -96 163 -140 320 -128 115 9 115 8 115 137 l0 110 -35
0 -34 0 -3 -97 -3 -98 -75 -3 c-121 -5 -188 27 -230 109 -41 79 -35 217 13
286 51 74 182 110 289 79 73 -21 80 -20 76 6 -2 16 -14 26 -43 34 -53 16 -188
16 -248 0z"/>
<path d="M3830 1141 c-105 -38 -160 -130 -160 -271 0 -131 49 -223 139 -263
27 -12 77 -21 126 -24 206 -13 315 86 315 287 0 128 -46 217 -134 262 -60 31
-211 36 -286 9z m249 -50 c23 -12 53 -40 68 -63 25 -37 28 -52 31 -142 3 -95
2 -104 -25 -156 -38 -75 -87 -100 -194 -100 -103 0 -153 26 -191 99 -24 46
-28 65 -28 136 0 151 46 221 160 246 54 12 133 3 179 -20z"/>
</g>
</svg>
