<svg fill="#68B4FF" xmlns="http://www.w3.org/2000/svg" xmlns:xlink="http://www.w3.org/1999/xlink" version="1.1" x="0px" y="0px" viewBox="0 0 100 125" enable-background="new 0 0 100 100" xml:space="preserve"><path fill-rule="evenodd" clip-rule="evenodd" d="M34.893,55.818l-5.863,9.213l11.157-6.008l2.56,0.936l2.646,0.651  l2.701,0.359l2.725,0.062l2.715-0.235l2.673-0.529l2.548-0.792l2.441-1.075l2.303-1.346l1.538-1.125l1.425-1.265l1.3-1.393  l1.163-1.51l1.076-1.748l0.857-1.866l0.625-1.955l0.385-2.016l0.139-2.049l-0.11-2.05l-0.356-2.022l-0.537-1.744l-0.714-1.678  l-0.882-1.597l-1.041-1.498l-1.245-1.46l-1.375-1.338l-1.493-1.205l-1.599-1.061l-2.402-1.256l-2.525-0.984l-2.619-0.699  l-2.679-0.406l-2.708-0.108l-2.704,0.191l-2.615,0.427l-2.548,0.726l-2.447,1.016l-2.313,1.292l-2.149,1.55l-1.955,1.788  l-1.355,1.569l-1.16,1.72l-0.948,1.845l-0.723,1.944l-0.488,2.015l-0.245,2.06l0.001,2.074l0.311,2.077l0.55,2.027l0.781,1.95  l1,1.846l1.208,1.719l1.398,1.567L34.893,55.818 M25.479,64.268l-1.913-2.474l-1.664-2.647l-1.401-2.796l-1.123-2.918l-0.835-3.014  l-0.54-3.08l-0.24-3.118l0.064-3.126l0.365-3.105l0.664-3.055l0.957-2.977l1.24-2.87l1.513-2.737l1.77-2.578l2.011-2.394  l2.234-2.189l2.435-1.962l2.613-1.718l2.767-1.456l2.895-1.182l2.995-0.896l3.069-0.603l3.112-0.303h3.127l3.112,0.303l3.069,0.603  l2.995,0.896l2.895,1.182l2.766,1.456l2.614,1.718l2.435,1.962l2.234,2.189l2.011,2.394l1.77,2.578l1.513,2.737l1.24,2.87  l0.957,2.977l0.664,3.055l0.365,3.105l0.064,3.126l-0.24,3.118l-0.54,3.08l-0.835,3.014l-1.123,2.918l-1.401,2.796l-1.664,2.647  l-1.913,2.474L50.03,93.03L25.479,64.268"/></svg>